<svg width="1932" height="828" viewBox="0 0 1932 828" fill="none" xmlns="http://www.w3.org/2000/svg">
  <!-- 왼쪽 블루 패널 -->
  <rect width="880" height="828" fill="#3182f6"/>
  <!-- 장식 원 -->
  <circle cx="820" cy="-60" r="260" fill="white" opacity="0.06"/>
  <circle cx="820" cy="900" r="200" fill="white" opacity="0.06"/>

  <!-- 로봇 아이콘 (80x80) -->
  <g transform="translate(80, 96) scale(0.133)">
    <rect width="600" height="600" rx="140" fill="white" opacity="0.18"/>
    <polygon points="300,82 438,144 300,206 162,144" fill="white" opacity="0.95"/>
    <rect x="272" y="196" width="56" height="44" rx="6" fill="white" opacity="0.95"/>
    <rect x="413" y="144" width="18" height="66" rx="9" fill="white" opacity="0.8"/>
    <circle cx="422" cy="218" r="18" fill="white" opacity="0.8"/>
    <rect x="284" y="200" width="32" height="46" rx="16" fill="white" opacity="0.9"/>
    <rect x="158" y="244" width="284" height="224" rx="64" fill="white" opacity="0.95"/>
    <rect x="194" y="300" width="88" height="58" rx="29" fill="#3182f6"/>
    <rect x="318" y="300" width="88" height="58" rx="29" fill="#3182f6"/>
    <circle cx="230" cy="316" r="10" fill="white" opacity="0.5"/>
    <circle cx="354" cy="316" r="10" fill="white" opacity="0.5"/>
    <rect x="218" y="388" width="164" height="28" rx="14" fill="#3182f6" opacity="0.4"/>
    <circle cx="186" cy="386" r="22" fill="#60a5fa" opacity="0.45"/>
    <circle cx="414" cy="386" r="22" fill="#60a5fa" opacity="0.45"/>
  </g>

  <!-- 앱 이름 -->
  <text x="80" y="256" font-family="'Pretendard', system-ui, -apple-system, sans-serif" font-size="100" font-weight="700" fill="white" letter-spacing="-2">AI쌤의</text>
  <text x="80" y="370" font-family="'Pretendard', system-ui, -apple-system, sans-serif" font-size="100" font-weight="700" fill="white" letter-spacing="-2">참교육</text>

  <!-- 설명 -->
  <text x="80" y="450" font-family="'Pretendard', system-ui, -apple-system, sans-serif" font-size="28" fill="white" opacity="0.85">소상공인 · 직장인 · 학생 · 시니어</text>
  <text x="80" y="490" font-family="'Pretendard', system-ui, -apple-system, sans-serif" font-size="28" fill="white" opacity="0.85">모두를 위한 하루 10분 AI 학습</text>

  <!-- 태그 pills -->
  <rect x="80" y="540" width="160" height="44" rx="22" fill="white" opacity="0.18"/>
  <text x="160" y="568" text-anchor="middle" font-family="'Pretendard', system-ui, -apple-system, sans-serif" font-size="20" font-weight="600" fill="white">매일 5문제</text>

  <rect x="252" y="540" width="168" height="44" rx="22" fill="white" opacity="0.18"/>
  <text x="336" y="568" text-anchor="middle" font-family="'Pretendard', system-ui, -apple-system, sans-serif" font-size="20" font-weight="600" fill="white">레벨 1~100</text>

  <rect x="432" y="540" width="144" height="44" rx="22" fill="white" opacity="0.18"/>
  <text x="504" y="568" text-anchor="middle" font-family="'Pretendard', system-ui, -apple-system, sans-serif" font-size="20" font-weight="600" fill="white">무료 시작</text>

  <!-- URL -->
  <text x="80" y="680" font-family="'Pretendard', system-ui, -apple-system, sans-serif" font-size="22" fill="white" opacity="0.55">withaissam.vercel.app</text>

  <!-- 오른쪽 패널 -->
  <rect x="880" width="1052" height="828" fill="#ebf3ff"/>

  <!-- 장식 원 -->
  <circle cx="1450" cy="414" r="360" fill="#3182f6" opacity="0.07"/>
  <circle cx="1450" cy="414" r="240" fill="#3182f6" opacity="0.07"/>

  <!-- 피처 카드 2x2 -->
  <!-- 카드 1 -->
  <rect x="940" y="108" width="280" height="148" rx="20" fill="white"/>
  <rect x="966" y="130" width="48" height="48" rx="14" fill="#ebf3ff"/>
  <text x="990" y="162" text-anchor="middle" font-family="system-ui" font-size="26">🤖</text>
  <text x="966" y="208" font-family="'Pretendard', system-ui, -apple-system, sans-serif" font-size="22" font-weight="700" fill="#111">AI 맞춤 학습</text>
  <text x="966" y="234" font-family="'Pretendard', system-ui, -apple-system, sans-serif" font-size="16" fill="#888">대상별 커스텀 커리큘럼</text>

  <!-- 카드 2 -->
  <rect x="1246" y="108" width="280" height="148" rx="20" fill="white"/>
  <rect x="1272" y="130" width="48" height="48" rx="14" fill="#fff3eb"/>
  <text x="1296" y="162" text-anchor="middle" font-family="system-ui" font-size="26">🔥</text>
  <text x="1272" y="208" font-family="'Pretendard', system-ui, -apple-system, sans-serif" font-size="22" font-weight="700" fill="#111">스트릭 시스템</text>
  <text x="1272" y="234" font-family="'Pretendard', system-ui, -apple-system, sans-serif" font-size="16" fill="#888">연속 출석으로 레벨업</text>

  <!-- 카드 3 -->
  <rect x="940" y="286" width="280" height="148" rx="20" fill="white"/>
  <rect x="966" y="308" width="48" height="48" rx="14" fill="#f0fdf4"/>
  <text x="990" y="340" text-anchor="middle" font-family="system-ui" font-size="26">📝</text>
  <text x="966" y="386" font-family="'Pretendard', system-ui, -apple-system, sans-serif" font-size="22" font-weight="700" fill="#111">실습형 문제</text>
  <text x="966" y="412" font-family="'Pretendard', system-ui, -apple-system, sans-serif" font-size="16" fill="#888">직접 프롬프트 작성·평가</text>

  <!-- 카드 4 -->
  <rect x="1246" y="286" width="280" height="148" rx="20" fill="white"/>
  <rect x="1272" y="308" width="48" height="48" rx="14" fill="#fdf4ff"/>
  <text x="1296" y="340" text-anchor="middle" font-family="system-ui" font-size="26">🏆</text>
  <text x="1272" y="386" font-family="'Pretendard', system-ui, -apple-system, sans-serif" font-size="22" font-weight="700" fill="#111">XP · 뱃지 · 레벨</text>
  <text x="1272" y="412" font-family="'Pretendard', system-ui, -apple-system, sans-serif" font-size="16" fill="#888">게임처럼 재미있게</text>

  <!-- 유저 타입 칩 -->
  <rect x="940" y="474" width="590" height="56" rx="16" fill="white"/>
  <text x="960" y="509" font-family="'Pretendard', system-ui, -apple-system, sans-serif" font-size="24" fill="#333">🏪 소상공인</text>
  <text x="1110" y="509" font-family="'Pretendard', system-ui, -apple-system, sans-serif" font-size="24" fill="#333">💼 직장인</text>
  <text x="1250" y="509" font-family="'Pretendard', system-ui, -apple-system, sans-serif" font-size="24" fill="#333">🎓 학생</text>
  <text x="1370" y="509" font-family="'Pretendard', system-ui, -apple-system, sans-serif" font-size="24" fill="#333">🌿 시니어</text>

  <!-- 큰 로봇 장식 -->
  <g transform="translate(1520, 480) scale(0.5)">
    <rect width="600" height="600" rx="140" fill="#3182f6" opacity="0.10"/>
    <polygon points="300,82 438,144 300,206 162,144" fill="#3182f6" opacity="0.55"/>
    <rect x="272" y="196" width="56" height="44" rx="6" fill="#3182f6" opacity="0.55"/>
    <rect x="413" y="144" width="18" height="66" rx="9" fill="#3182f6" opacity="0.4"/>
    <circle cx="422" cy="218" r="18" fill="#3182f6" opacity="0.4"/>
    <rect x="284" y="200" width="32" height="46" rx="16" fill="#3182f6" opacity="0.45"/>
    <rect x="158" y="244" width="284" height="224" rx="64" fill="#3182f6" opacity="0.65"/>
    <rect x="194" y="300" width="88" height="58" rx="29" fill="white"/>
    <rect x="318" y="300" width="88" height="58" rx="29" fill="white"/>
    <circle cx="230" cy="316" r="10" fill="#3182f6" opacity="0.3"/>
    <circle cx="354" cy="316" r="10" fill="#3182f6" opacity="0.3"/>
    <rect x="218" y="388" width="164" height="28" rx="14" fill="white" opacity="0.4"/>
    <circle cx="186" cy="386" r="22" fill="#93c5fd" opacity="0.45"/>
    <circle cx="414" cy="386" r="22" fill="#93c5fd" opacity="0.45"/>
  </g>
</svg>
